<mxfile host="app.diagrams.net" agent="Mozilla/5.0 (Windows NT 10.0; Win64; x64; rv:135.0) Gecko/20100101 Firefox/135.0" version="26.0.14">
  <diagram name="Page-1" id="SDwyxEElZuBCBg0Lto36">
    <mxGraphModel dx="1235" dy="1871" grid="1" gridSize="10" guides="1" tooltips="1" connect="1" arrows="1" fold="1" page="1" pageScale="1" pageWidth="850" pageHeight="1100" math="0" shadow="0">
      <root>
        <mxCell id="0" />
        <mxCell id="1" parent="0" />
        <mxCell id="4HZs_WPm-Cy2UcO1JBEu-4" value="" style="rounded=0;whiteSpace=wrap;html=1;fillColor=#f5f5f5;fontColor=#333333;strokeColor=#666666;" vertex="1" parent="1">
          <mxGeometry x="650" y="100" width="170" height="270" as="geometry" />
        </mxCell>
        <mxCell id="4HZs_WPm-Cy2UcO1JBEu-5" value="" style="rounded=0;whiteSpace=wrap;html=1;fillColor=#f5f5f5;strokeColor=#666666;fontColor=#333333;" vertex="1" parent="1">
          <mxGeometry x="110" y="100" width="450" height="400" as="geometry" />
        </mxCell>
        <mxCell id="4HZs_WPm-Cy2UcO1JBEu-6" style="edgeStyle=orthogonalEdgeStyle;rounded=0;orthogonalLoop=1;jettySize=auto;html=1;entryX=0;entryY=0.5;entryDx=0;entryDy=0;" edge="1" parent="1" source="4HZs_WPm-Cy2UcO1JBEu-23" target="4HZs_WPm-Cy2UcO1JBEu-8">
          <mxGeometry relative="1" as="geometry" />
        </mxCell>
        <mxCell id="4HZs_WPm-Cy2UcO1JBEu-7" value="MinIO" style="shape=cylinder3;whiteSpace=wrap;html=1;boundedLbl=1;backgroundOutline=1;size=15;fillColor=#f8cecc;strokeColor=#000000;" vertex="1" parent="1">
          <mxGeometry x="180" y="210" width="60" height="80" as="geometry" />
        </mxCell>
        <mxCell id="4HZs_WPm-Cy2UcO1JBEu-26" style="edgeStyle=orthogonalEdgeStyle;rounded=0;orthogonalLoop=1;jettySize=auto;html=1;" edge="1" parent="1" source="4HZs_WPm-Cy2UcO1JBEu-30" target="4HZs_WPm-Cy2UcO1JBEu-25">
          <mxGeometry relative="1" as="geometry" />
        </mxCell>
        <mxCell id="4HZs_WPm-Cy2UcO1JBEu-8" value="Argo Workflow controller" style="rounded=0;whiteSpace=wrap;html=1;" vertex="1" parent="1">
          <mxGeometry x="380" y="220" width="120" height="60" as="geometry" />
        </mxCell>
        <mxCell id="4HZs_WPm-Cy2UcO1JBEu-9" style="edgeStyle=orthogonalEdgeStyle;rounded=0;orthogonalLoop=1;jettySize=auto;html=1;" edge="1" parent="1" source="4HZs_WPm-Cy2UcO1JBEu-21" target="4HZs_WPm-Cy2UcO1JBEu-8">
          <mxGeometry relative="1" as="geometry" />
        </mxCell>
        <mxCell id="4HZs_WPm-Cy2UcO1JBEu-10" value="MinIO" style="shape=cylinder3;whiteSpace=wrap;html=1;boundedLbl=1;backgroundOutline=1;size=15;fillColor=#f8cecc;strokeColor=#000000;" vertex="1" parent="1">
          <mxGeometry x="690" y="210" width="60" height="80" as="geometry" />
        </mxCell>
        <mxCell id="4HZs_WPm-Cy2UcO1JBEu-11" value="&lt;b&gt;Remote &#39;Large&#39; Datastore&lt;/b&gt;" style="text;html=1;align=center;verticalAlign=middle;whiteSpace=wrap;rounded=0;" vertex="1" parent="1">
          <mxGeometry x="690" y="310" width="60" height="30" as="geometry" />
        </mxCell>
        <mxCell id="4HZs_WPm-Cy2UcO1JBEu-12" value="&lt;div&gt;&lt;b&gt;Local &#39;Smaller&#39;&lt;/b&gt;&lt;/div&gt;&lt;div&gt;&lt;b&gt;Datastore&lt;/b&gt;&lt;/div&gt;" style="text;html=1;align=center;verticalAlign=middle;whiteSpace=wrap;rounded=0;" vertex="1" parent="1">
          <mxGeometry x="180" y="300" width="60" height="30" as="geometry" />
        </mxCell>
        <mxCell id="4HZs_WPm-Cy2UcO1JBEu-13" value="&lt;b&gt;UvA network&lt;/b&gt;" style="text;html=1;align=center;verticalAlign=middle;whiteSpace=wrap;rounded=0;" vertex="1" parent="1">
          <mxGeometry x="110" y="100" width="100" height="30" as="geometry" />
        </mxCell>
        <mxCell id="4HZs_WPm-Cy2UcO1JBEu-14" style="edgeStyle=orthogonalEdgeStyle;rounded=0;orthogonalLoop=1;jettySize=auto;html=1;" edge="1" parent="1" source="4HZs_WPm-Cy2UcO1JBEu-19" target="4HZs_WPm-Cy2UcO1JBEu-8">
          <mxGeometry relative="1" as="geometry" />
        </mxCell>
        <mxCell id="4HZs_WPm-Cy2UcO1JBEu-15" value="" style="ellipse;whiteSpace=wrap;html=1;fillColor=#fff2cc;strokeColor=#000000;" vertex="1" parent="1">
          <mxGeometry x="380" y="-10" width="120" height="80" as="geometry" />
        </mxCell>
        <mxCell id="4HZs_WPm-Cy2UcO1JBEu-16" value="&lt;span&gt;External Client&lt;/span&gt;" style="text;html=1;align=center;verticalAlign=middle;whiteSpace=wrap;rounded=0;fontStyle=1" vertex="1" parent="1">
          <mxGeometry x="410" y="15" width="60" height="30" as="geometry" />
        </mxCell>
        <mxCell id="4HZs_WPm-Cy2UcO1JBEu-18" value="" style="edgeStyle=orthogonalEdgeStyle;rounded=0;orthogonalLoop=1;jettySize=auto;html=1;endArrow=none;startFill=0;" edge="1" parent="1" source="4HZs_WPm-Cy2UcO1JBEu-15" target="4HZs_WPm-Cy2UcO1JBEu-19">
          <mxGeometry relative="1" as="geometry">
            <mxPoint x="440" y="70" as="sourcePoint" />
            <mxPoint x="440" y="220" as="targetPoint" />
          </mxGeometry>
        </mxCell>
        <mxCell id="4HZs_WPm-Cy2UcO1JBEu-19" value="Dataprocessing jobs (JSON)" style="text;html=1;align=center;verticalAlign=middle;whiteSpace=wrap;rounded=0;" vertex="1" parent="1">
          <mxGeometry x="390" y="140" width="100" height="30" as="geometry" />
        </mxCell>
        <mxCell id="4HZs_WPm-Cy2UcO1JBEu-20" value="" style="edgeStyle=orthogonalEdgeStyle;rounded=0;orthogonalLoop=1;jettySize=auto;html=1;endArrow=none;startFill=0;" edge="1" parent="1" source="4HZs_WPm-Cy2UcO1JBEu-10" target="4HZs_WPm-Cy2UcO1JBEu-21">
          <mxGeometry relative="1" as="geometry">
            <mxPoint x="640" y="250" as="sourcePoint" />
            <mxPoint x="500" y="250" as="targetPoint" />
          </mxGeometry>
        </mxCell>
        <mxCell id="4HZs_WPm-Cy2UcO1JBEu-21" value="&#39;Slow&#39; remote data fetch" style="text;html=1;align=center;verticalAlign=middle;whiteSpace=wrap;rounded=0;" vertex="1" parent="1">
          <mxGeometry x="580" y="235" width="60" height="30" as="geometry" />
        </mxCell>
        <mxCell id="4HZs_WPm-Cy2UcO1JBEu-22" value="" style="edgeStyle=orthogonalEdgeStyle;rounded=0;orthogonalLoop=1;jettySize=auto;html=1;entryX=0;entryY=0.5;entryDx=0;entryDy=0;endArrow=none;startFill=0;" edge="1" parent="1" source="4HZs_WPm-Cy2UcO1JBEu-7" target="4HZs_WPm-Cy2UcO1JBEu-23">
          <mxGeometry relative="1" as="geometry">
            <mxPoint x="240" y="250" as="sourcePoint" />
            <mxPoint x="380" y="250" as="targetPoint" />
          </mxGeometry>
        </mxCell>
        <mxCell id="4HZs_WPm-Cy2UcO1JBEu-23" value="&#39;Faster&#39; local data fetch" style="text;html=1;align=center;verticalAlign=middle;whiteSpace=wrap;rounded=0;" vertex="1" parent="1">
          <mxGeometry x="277.5" y="235" width="60" height="30" as="geometry" />
        </mxCell>
        <mxCell id="4HZs_WPm-Cy2UcO1JBEu-24" value="Remote nework" style="text;html=1;align=center;verticalAlign=middle;whiteSpace=wrap;rounded=0;fontStyle=1" vertex="1" parent="1">
          <mxGeometry x="650" y="100" width="100" height="30" as="geometry" />
        </mxCell>
        <mxCell id="4HZs_WPm-Cy2UcO1JBEu-27" style="edgeStyle=orthogonalEdgeStyle;rounded=0;orthogonalLoop=1;jettySize=auto;html=1;" edge="1" parent="1" source="4HZs_WPm-Cy2UcO1JBEu-34">
          <mxGeometry relative="1" as="geometry">
            <mxPoint x="720" y="350" as="targetPoint" />
            <Array as="points">
              <mxPoint x="720" y="390" />
            </Array>
          </mxGeometry>
        </mxCell>
        <mxCell id="4HZs_WPm-Cy2UcO1JBEu-42" style="edgeStyle=orthogonalEdgeStyle;rounded=0;orthogonalLoop=1;jettySize=auto;html=1;entryX=1;entryY=0.5;entryDx=0;entryDy=0;" edge="1" parent="1" source="4HZs_WPm-Cy2UcO1JBEu-44" target="4HZs_WPm-Cy2UcO1JBEu-12">
          <mxGeometry relative="1" as="geometry">
            <Array as="points">
              <mxPoint x="310" y="315" />
            </Array>
          </mxGeometry>
        </mxCell>
        <mxCell id="4HZs_WPm-Cy2UcO1JBEu-25" value="Replication service(s)" style="rounded=0;whiteSpace=wrap;html=1;" vertex="1" parent="1">
          <mxGeometry x="380" y="365" width="120" height="60" as="geometry" />
        </mxCell>
        <mxCell id="4HZs_WPm-Cy2UcO1JBEu-32" value="" style="edgeStyle=orthogonalEdgeStyle;rounded=0;orthogonalLoop=1;jettySize=auto;html=1;endArrow=none;startFill=0;" edge="1" parent="1" source="4HZs_WPm-Cy2UcO1JBEu-8" target="4HZs_WPm-Cy2UcO1JBEu-30">
          <mxGeometry relative="1" as="geometry">
            <mxPoint x="440" y="280" as="sourcePoint" />
            <mxPoint x="440" y="360" as="targetPoint" />
          </mxGeometry>
        </mxCell>
        <mxCell id="4HZs_WPm-Cy2UcO1JBEu-30" value="Replicate/Delete data request (REST)" style="text;html=1;align=center;verticalAlign=middle;whiteSpace=wrap;rounded=0;" vertex="1" parent="1">
          <mxGeometry x="360" y="300" width="160" height="30" as="geometry" />
        </mxCell>
        <mxCell id="4HZs_WPm-Cy2UcO1JBEu-35" value="" style="edgeStyle=orthogonalEdgeStyle;rounded=0;orthogonalLoop=1;jettySize=auto;html=1;" edge="1" parent="1" source="4HZs_WPm-Cy2UcO1JBEu-25" target="4HZs_WPm-Cy2UcO1JBEu-34">
          <mxGeometry relative="1" as="geometry">
            <mxPoint x="500" y="390" as="sourcePoint" />
            <mxPoint x="720" y="350" as="targetPoint" />
            <Array as="points" />
          </mxGeometry>
        </mxCell>
        <mxCell id="4HZs_WPm-Cy2UcO1JBEu-34" value="Data clone (rclone streaming)" style="text;html=1;align=center;verticalAlign=middle;whiteSpace=wrap;rounded=0;" vertex="1" parent="1">
          <mxGeometry x="580" y="380" width="120" height="30" as="geometry" />
        </mxCell>
        <mxCell id="4HZs_WPm-Cy2UcO1JBEu-36" style="edgeStyle=orthogonalEdgeStyle;rounded=0;orthogonalLoop=1;jettySize=auto;html=1;" edge="1" parent="1" source="4HZs_WPm-Cy2UcO1JBEu-46">
          <mxGeometry relative="1" as="geometry">
            <mxPoint x="204" y="340" as="targetPoint" />
            <Array as="points" />
          </mxGeometry>
        </mxCell>
        <mxCell id="4HZs_WPm-Cy2UcO1JBEu-45" value="" style="edgeStyle=orthogonalEdgeStyle;rounded=0;orthogonalLoop=1;jettySize=auto;html=1;entryX=0.5;entryY=1;entryDx=0;entryDy=0;endArrow=none;startFill=0;" edge="1" parent="1" source="4HZs_WPm-Cy2UcO1JBEu-25" target="4HZs_WPm-Cy2UcO1JBEu-44">
          <mxGeometry relative="1" as="geometry">
            <mxPoint x="380" y="395" as="sourcePoint" />
            <mxPoint x="240" y="315" as="targetPoint" />
          </mxGeometry>
        </mxCell>
        <mxCell id="4HZs_WPm-Cy2UcO1JBEu-44" value="Query/Delete Data commands" style="text;html=1;align=center;verticalAlign=middle;whiteSpace=wrap;rounded=0;" vertex="1" parent="1">
          <mxGeometry x="243.75" y="340" width="127.5" height="30" as="geometry" />
        </mxCell>
        <mxCell id="4HZs_WPm-Cy2UcO1JBEu-47" value="" style="edgeStyle=orthogonalEdgeStyle;rounded=0;orthogonalLoop=1;jettySize=auto;html=1;entryX=1;entryY=0.5;entryDx=0;entryDy=0;endArrow=none;startFill=0;exitX=1;exitY=0.5;exitDx=0;exitDy=0;" edge="1" parent="1" source="4HZs_WPm-Cy2UcO1JBEu-11" target="4HZs_WPm-Cy2UcO1JBEu-46">
          <mxGeometry relative="1" as="geometry">
            <mxPoint x="756.06" y="370" as="sourcePoint" />
            <mxPoint x="596" y="510" as="targetPoint" />
            <Array as="points">
              <mxPoint x="786" y="325" />
              <mxPoint x="786" y="465" />
            </Array>
          </mxGeometry>
        </mxCell>
        <mxCell id="4HZs_WPm-Cy2UcO1JBEu-46" value="Datastreaming" style="text;html=1;align=center;verticalAlign=middle;whiteSpace=wrap;rounded=0;" vertex="1" parent="1">
          <mxGeometry x="590" y="450" width="80" height="30" as="geometry" />
        </mxCell>
        <mxCell id="4HZs_WPm-Cy2UcO1JBEu-48" value="First required data source is processed normally. Subsequent sources handled by replication service." style="shape=callout;whiteSpace=wrap;html=1;perimeter=calloutPerimeter;" vertex="1" parent="1">
          <mxGeometry x="210" y="110" width="160" height="90" as="geometry" />
        </mxCell>
      </root>
    </mxGraphModel>
  </diagram>
</mxfile>
